<?xml version="1.0" standalone="no"?>
<!DOCTYPE svg PUBLIC "-//W3C//DTD SVG 20010904//EN"
 "http://www.w3.org/TR/2001/REC-SVG-20010904/DTD/svg10.dtd">
<svg version="1.0" xmlns="http://www.w3.org/2000/svg"
 width="175.000000pt" height="167.000000pt" viewBox="0 0 175.000000 167.000000"
 preserveAspectRatio="xMidYMid meet">
<metadata>
Created by potrace 1.16, written by Peter Selinger 2001-2019
</metadata>
<g transform="translate(0.000000,167.000000) scale(0.100000,-0.100000)"
fill="#000000" stroke="none">
<path d="M20 1430 l0 -190 205 0 205 0 0 190 0 190 -205 0 -205 0 0 -190z
m350 0 l0 -130 -145 0 -145 0 0 130 0 130 145 0 145 0 0 -130z"/>
<path d="M140 1430 l0 -80 90 0 90 0 0 80 0 80 -90 0 -90 0 0 -80z"/>
<path d="M550 1596 c0 -19 -6 -25 -27 -28 l-28 -3 -3 -162 -2 -163 30 0 30 0
0 80 0 80 60 0 c57 0 60 -1 60 -25 0 -21 5 -25 30 -25 30 0 30 -1 30 -55 0
-54 0 -55 -30 -55 -27 0 -30 3 -30 31 0 27 -3 30 -27 27 -26 -3 -28 -7 -31
-55 l-3 -53 -145 0 -144 0 0 -55 c0 -54 0 -55 -30 -55 -25 0 -30 4 -30 25 0
21 -5 25 -30 25 -27 0 -30 3 -30 30 0 27 -3 30 -30 30 -27 0 -30 -3 -30 -30 0
-27 -3 -30 -30 -30 -25 0 -30 -4 -30 -25 0 -21 5 -25 30 -25 25 0 30 4 30 25
0 21 5 25 30 25 30 0 30 -1 30 -55 0 -54 0 -55 -30 -55 -29 0 -30 -1 -30 -50
0 -49 -1 -50 -30 -50 -29 0 -30 1 -30 50 0 49 -1 50 -30 50 -29 0 -30 -1 -30
-50 0 -49 1 -50 30 -50 30 0 30 -1 30 -55 0 -54 0 -55 30 -55 27 0 30 -3 30
-30 0 -27 3 -30 30 -30 25 0 30 -4 30 -25 0 -21 -5 -25 -30 -25 -25 0 -30 -4
-30 -25 0 -24 -3 -25 -60 -25 l-60 0 0 -30 0 -30 90 0 90 0 0 55 c0 54 0 55
30 55 l30 0 0 -80 0 -80 -30 0 c-27 0 -30 -3 -30 -30 l0 -31 58 3 c54 3 57 4
60 31 3 21 9 27 27 27 18 0 24 -6 27 -27 2 -22 9 -29 30 -31 23 -3 27 1 30 25
3 27 6 28 61 31 l57 3 0 -31 c0 -27 -3 -30 -30 -30 l-30 0 0 -80 0 -80 60 0
60 0 0 -135 0 -135 60 0 c57 0 60 1 60 25 0 24 3 25 60 25 57 0 60 -1 60 -25
0 -24 3 -25 60 -25 57 0 60 1 60 25 0 24 -3 25 -60 25 l-60 0 0 55 0 55 60 0
c57 0 60 -1 60 -25 0 -21 5 -25 30 -25 25 0 30 4 30 25 0 21 5 25 30 25 30 0
30 -1 30 -55 0 -54 0 -55 -30 -55 -25 0 -30 -4 -30 -25 0 -21 5 -25 30 -25 25
0 30 4 30 25 0 21 5 25 30 25 30 0 30 1 30 55 l0 55 60 0 60 0 0 -80 0 -80 30
0 c25 0 30 4 30 25 0 21 5 25 30 25 25 0 30 -4 30 -25 0 -25 1 -25 85 -25 84
0 85 0 85 25 0 25 -1 25 -84 25 l-85 0 -3 28 c-2 21 -9 28 -30 30 -22 3 -28 9
-28 28 0 20 -5 24 -30 24 -27 0 -30 3 -30 30 l0 31 58 -3 c54 -3 57 -4 60 -31
3 -21 9 -27 28 -27 19 0 24 -5 24 -25 0 -21 5 -25 30 -25 l29 0 3 78 c3 76 3
77 31 80 21 3 27 9 27 28 0 20 5 24 30 24 27 0 30 3 30 30 0 27 -3 30 -30 30
l-30 0 0 80 0 80 -60 0 -60 0 0 80 0 80 -85 0 -85 0 0 30 c0 27 -3 30 -30 30
-25 0 -30 4 -30 25 0 21 5 25 30 25 27 0 30 3 30 31 0 27 3 30 28 27 21 -2 28
-9 30 -31 3 -24 7 -28 30 -25 26 3 27 5 30 81 l3 77 -31 0 c-27 0 -30 3 -30
30 0 30 1 30 55 30 52 0 55 1 55 25 0 21 5 25 30 25 25 0 30 -4 30 -25 0 -21
5 -25 30 -25 27 0 30 -3 30 -30 0 -27 -3 -30 -30 -30 l-31 0 3 -132 3 -133 28
-3 c24 -3 27 0 27 27 0 28 3 31 30 31 25 0 30 4 30 25 0 21 5 25 30 25 25 0
30 -4 30 -25 0 -21 5 -25 30 -25 30 0 30 1 30 55 0 54 0 55 -30 55 -25 0 -30
4 -30 25 0 21 -5 25 -30 25 -30 0 -30 -1 -30 -55 0 -54 0 -55 -30 -55 l-30 0
0 80 0 80 30 0 c27 0 30 3 30 30 0 27 3 30 29 30 25 0 30 -4 33 -27 2 -22 9
-29 31 -31 27 -3 27 -2 27 52 0 52 -1 55 -27 58 -22 2 -29 9 -31 31 l-3 27
-144 0 -144 0 -3 -27 c-2 -22 -9 -29 -30 -31 -23 -3 -27 1 -30 25 -2 22 -9 29
-30 31 -28 3 -28 4 -28 83 l0 79 -30 0 c-30 0 -30 -1 -30 -55 0 -54 0 -55 -30
-55 l-30 0 0 80 0 80 -30 0 c-30 0 -30 1 -30 55 0 54 0 55 30 55 25 0 30 -4
30 -25 0 -21 5 -25 30 -25 27 0 30 -3 30 -31 0 -27 3 -30 28 -27 l27 3 3 108
3 107 -61 0 c-57 0 -60 -1 -60 -25 0 -21 -5 -25 -30 -25 -25 0 -30 4 -30 25 0
24 -3 25 -60 25 -57 0 -60 -1 -60 -25 0 -21 -5 -25 -30 -25 -25 0 -30 4 -30
25 l0 25 -180 0 -180 0 0 -24z m300 -56 l0 -30 90 0 c89 0 90 0 90 -25 0 -25
-1 -25 -90 -25 l-90 0 0 -30 0 -30 -90 0 -90 0 0 30 0 30 60 0 c57 0 60 1 60
24 0 19 -6 25 -27 28 -22 2 -29 9 -31 31 -3 27 -3 27 57 27 l61 0 0 -30z m240
-165 c0 -24 -3 -25 -60 -25 l-60 0 0 -55 c0 -54 0 -55 30 -55 27 0 30 3 30 30
0 27 3 30 30 30 27 0 30 -3 30 -30 0 -27 3 -30 30 -30 30 0 30 -1 30 -55 0
-55 0 -55 31 -55 l30 0 -3 -52 c-3 -49 -5 -53 -30 -56 -22 -3 -28 -9 -28 -28
0 -23 3 -24 60 -24 57 0 60 1 60 25 0 21 5 25 31 25 26 0 30 -3 27 -22 -2 -17
-11 -24 -30 -26 -22 -3 -28 -9 -28 -27 0 -22 -4 -24 -57 -27 l-58 -3 -3 -107
-3 -108 31 0 c25 0 30 4 30 25 0 21 5 25 30 25 25 0 30 -4 30 -25 0 -22 4 -24
58 -27 l57 -3 0 -50 0 -50 -57 -3 c-54 -3 -58 -5 -58 -27 0 -24 -3 -25 -60
-25 -57 0 -60 1 -60 25 0 21 -5 25 -30 25 -25 0 -30 -4 -30 -25 0 -21 -5 -25
-30 -25 -27 0 -30 -3 -30 -30 l0 -30 60 0 c57 0 60 -1 60 -25 0 -21 5 -25 31
-25 27 0 30 -3 27 -27 -3 -27 -6 -28 -60 -31 -54 -3 -58 -5 -58 -27 0 -21 -5
-25 -30 -25 -25 0 -30 -4 -30 -25 0 -25 -1 -25 -90 -25 -89 0 -90 0 -90 25 0
21 -5 25 -30 25 -25 0 -30 -4 -30 -25 0 -24 -3 -25 -60 -25 -57 0 -60 1 -60
25 0 21 -5 25 -30 25 -30 0 -30 1 -30 55 0 54 0 55 -30 55 -25 0 -30 4 -30 25
0 24 3 25 60 25 l60 0 0 30 c0 27 -3 30 -30 30 -25 0 -30 4 -30 25 0 25 -1 25
-90 25 -89 0 -90 0 -90 -25 0 -21 -5 -25 -30 -25 -25 0 -30 4 -30 25 0 20 -5
25 -25 25 -24 0 -25 3 -25 55 0 54 0 55 -29 55 -29 0 -30 2 -33 53 l-3 52 -57
3 c-54 3 -58 5 -58 27 0 25 1 25 90 25 l90 0 0 -80 0 -80 55 0 c52 0 55 2 55
24 0 19 -6 25 -27 28 -22 2 -28 8 -28 28 0 20 6 26 28 28 21 3 27 9 27 27 0
18 -6 24 -27 27 -22 2 -28 8 -28 28 0 20 6 26 28 28 21 3 27 9 27 28 0 22 -3
24 -55 24 -52 0 -55 -1 -55 -25 0 -24 -3 -25 -60 -25 l-60 0 0 50 0 50 205 0
205 0 0 85 0 85 30 0 c30 0 30 -1 30 -55 l0 -55 60 0 c57 0 60 1 60 24 0 19
-6 25 -27 28 -22 2 -29 9 -31 31 -3 24 0 27 27 27 l31 0 0 80 0 80 90 0 c89 0
90 0 90 25 0 24 3 25 60 25 57 0 60 -1 60 -25z m350 -975 l0 -80 -85 0 -85 0
0 80 0 80 85 0 85 0 0 -80z"/>
<path d="M850 1245 c0 -54 0 -55 30 -55 30 0 30 -1 30 -55 l0 -55 90 0 90 0 0
80 0 80 -30 0 c-25 0 -30 -4 -30 -25 0 -21 -5 -25 -30 -25 -25 0 -30 4 -30 25
0 21 -5 25 -30 25 -27 0 -30 3 -30 30 0 27 -3 30 -30 30 -30 0 -30 -1 -30 -55z"/>
<path d="M550 915 c0 -54 0 -55 -30 -55 l-30 0 0 -105 0 -105 30 0 c29 0 30 1
30 50 0 49 1 50 30 50 l30 0 0 110 0 110 -30 0 c-30 0 -30 -1 -30 -55z"/>
<path d="M670 565 c0 -21 5 -25 30 -25 27 0 30 -3 30 -30 0 -27 -3 -30 -30
-30 -30 0 -30 -1 -30 -55 0 -54 0 -55 30 -55 25 0 30 -4 30 -25 0 -21 5 -25
30 -25 25 0 30 4 30 25 0 21 -5 25 -30 25 -30 0 -30 1 -30 55 l0 55 60 0 60 0
0 -55 c0 -54 0 -55 30 -55 25 0 30 -4 30 -25 0 -24 3 -25 60 -25 57 0 60 1 60
25 0 21 5 25 30 25 27 0 30 3 30 30 0 27 -3 30 -30 30 -27 0 -30 -3 -30 -30 0
-27 -3 -30 -30 -30 -30 0 -30 1 -30 55 l0 55 -61 0 c-60 0 -60 0 -57 28 2 21
9 28 31 30 21 3 27 9 27 28 0 23 -3 24 -60 24 -57 0 -60 -1 -60 -25 0 -21 -5
-25 -30 -25 -25 0 -30 4 -30 25 0 21 -5 25 -30 25 -25 0 -30 -4 -30 -25z"/>
<path d="M1330 1430 l0 -190 205 0 205 0 0 190 0 190 -205 0 -205 0 0 -190z
m350 0 l0 -130 -145 0 -145 0 0 130 0 130 145 0 145 0 0 -130z"/>
<path d="M1440 1430 l0 -80 90 0 90 0 0 80 0 80 -90 0 -90 0 0 -80z"/>
<path d="M1680 670 l0 -80 -30 0 c-30 0 -30 -1 -30 -55 0 -54 0 -55 30 -55
l30 0 0 -80 0 -80 30 0 30 0 0 215 0 215 -30 0 -30 0 0 -80z"/>
<path d="M20 240 l0 -190 205 0 205 0 0 190 0 190 -205 0 -205 0 0 -190z m350
0 l0 -130 -145 0 -145 0 0 130 0 130 145 0 145 0 0 -130z"/>
<path d="M140 240 l0 -80 90 0 90 0 0 80 0 80 -90 0 -90 0 0 -80z"/>
</g>
</svg>
